<mxfile host="app.diagrams.net" modified="2023-01-02T03:03:07.243Z" agent="5.0 (Windows NT 10.0; Win64; x64) AppleWebKit/537.36 (KHTML, like Gecko) Chrome/108.0.0.0 Safari/537.36" etag="R_blIcdcDb07aSdg29V3" version="20.7.4" type="github">
  <diagram id="R2lEEEUBdFMjLlhIrx00" name="Page-1">
    <mxGraphModel dx="1876" dy="947" grid="1" gridSize="10" guides="1" tooltips="1" connect="1" arrows="1" fold="1" page="1" pageScale="1" pageWidth="850" pageHeight="1100" math="0" shadow="0" extFonts="Permanent Marker^https://fonts.googleapis.com/css?family=Permanent+Marker">
      <root>
        <mxCell id="0" />
        <mxCell id="1" parent="0" />
        <mxCell id="XLNV6LYxOOSoH3dIW850-2" style="edgeStyle=orthogonalEdgeStyle;rounded=0;orthogonalLoop=1;jettySize=auto;html=1;" edge="1" parent="1" target="XLNV6LYxOOSoH3dIW850-3">
          <mxGeometry relative="1" as="geometry">
            <mxPoint x="370" y="250" as="targetPoint" />
            <mxPoint x="425" y="160" as="sourcePoint" />
            <Array as="points">
              <mxPoint x="425" y="190" />
              <mxPoint x="240" y="190" />
              <mxPoint x="240" y="250" />
            </Array>
          </mxGeometry>
        </mxCell>
        <mxCell id="XLNV6LYxOOSoH3dIW850-29" value="" style="edgeStyle=orthogonalEdgeStyle;rounded=0;orthogonalLoop=1;jettySize=auto;html=1;" edge="1" parent="1" source="XLNV6LYxOOSoH3dIW850-3" target="XLNV6LYxOOSoH3dIW850-28">
          <mxGeometry relative="1" as="geometry">
            <Array as="points">
              <mxPoint x="213" y="310" />
              <mxPoint x="144" y="310" />
            </Array>
          </mxGeometry>
        </mxCell>
        <mxCell id="XLNV6LYxOOSoH3dIW850-3" value="recv()" style="rounded=0;whiteSpace=wrap;html=1;" vertex="1" parent="1">
          <mxGeometry x="153" y="220" width="120" height="60" as="geometry" />
        </mxCell>
        <mxCell id="XLNV6LYxOOSoH3dIW850-4" style="edgeStyle=orthogonalEdgeStyle;rounded=0;orthogonalLoop=1;jettySize=auto;html=1;" edge="1" parent="1">
          <mxGeometry relative="1" as="geometry">
            <mxPoint x="537" y="220" as="targetPoint" />
            <mxPoint x="422" y="160" as="sourcePoint" />
            <Array as="points">
              <mxPoint x="426" y="160" />
              <mxPoint x="426" y="190" />
              <mxPoint x="537" y="190" />
            </Array>
          </mxGeometry>
        </mxCell>
        <mxCell id="XLNV6LYxOOSoH3dIW850-5" value="waits 1 sec&lt;br&gt;sends &#39;C&#39;" style="rounded=0;whiteSpace=wrap;html=1;" vertex="1" parent="1">
          <mxGeometry x="365" y="310" width="120" height="60" as="geometry" />
        </mxCell>
        <mxCell id="XLNV6LYxOOSoH3dIW850-6" value="START" style="text;html=1;strokeColor=none;fillColor=none;align=center;verticalAlign=middle;whiteSpace=wrap;rounded=0;" vertex="1" parent="1">
          <mxGeometry x="395" y="120" width="60" height="30" as="geometry" />
        </mxCell>
        <mxCell id="XLNV6LYxOOSoH3dIW850-8" value="fork()" style="text;html=1;strokeColor=none;fillColor=none;align=center;verticalAlign=middle;whiteSpace=wrap;rounded=0;" vertex="1" parent="1">
          <mxGeometry x="419" y="162" width="60" height="30" as="geometry" />
        </mxCell>
        <mxCell id="XLNV6LYxOOSoH3dIW850-10" style="edgeStyle=orthogonalEdgeStyle;rounded=0;orthogonalLoop=1;jettySize=auto;html=1;" edge="1" parent="1">
          <mxGeometry relative="1" as="geometry">
            <mxPoint x="420" y="310" as="targetPoint" />
            <mxPoint x="536" y="220" as="sourcePoint" />
            <Array as="points">
              <mxPoint x="536" y="250" />
              <mxPoint x="420" y="250" />
            </Array>
          </mxGeometry>
        </mxCell>
        <mxCell id="XLNV6LYxOOSoH3dIW850-11" style="edgeStyle=orthogonalEdgeStyle;rounded=0;orthogonalLoop=1;jettySize=auto;html=1;" edge="1" parent="1">
          <mxGeometry relative="1" as="geometry">
            <mxPoint x="648" y="280" as="targetPoint" />
            <mxPoint x="533" y="220" as="sourcePoint" />
            <Array as="points">
              <mxPoint x="537" y="220" />
              <mxPoint x="537" y="250" />
              <mxPoint x="648" y="250" />
            </Array>
          </mxGeometry>
        </mxCell>
        <mxCell id="XLNV6LYxOOSoH3dIW850-13" value="fork()" style="text;html=1;strokeColor=none;fillColor=none;align=center;verticalAlign=middle;whiteSpace=wrap;rounded=0;" vertex="1" parent="1">
          <mxGeometry x="537" y="218" width="60" height="30" as="geometry" />
        </mxCell>
        <mxCell id="XLNV6LYxOOSoH3dIW850-15" style="edgeStyle=orthogonalEdgeStyle;rounded=0;orthogonalLoop=1;jettySize=auto;html=1;" edge="1" parent="1" source="XLNV6LYxOOSoH3dIW850-14" target="XLNV6LYxOOSoH3dIW850-16">
          <mxGeometry relative="1" as="geometry">
            <mxPoint x="650" y="410" as="targetPoint" />
          </mxGeometry>
        </mxCell>
        <mxCell id="XLNV6LYxOOSoH3dIW850-14" value="loas data&lt;br&gt;sends &#39;P&#39;" style="rounded=0;whiteSpace=wrap;html=1;" vertex="1" parent="1">
          <mxGeometry x="590" y="280" width="120" height="60" as="geometry" />
        </mxCell>
        <mxCell id="XLNV6LYxOOSoH3dIW850-20" value="" style="edgeStyle=orthogonalEdgeStyle;rounded=0;orthogonalLoop=1;jettySize=auto;html=1;" edge="1" parent="1" source="XLNV6LYxOOSoH3dIW850-16" target="XLNV6LYxOOSoH3dIW850-19">
          <mxGeometry relative="1" as="geometry" />
        </mxCell>
        <mxCell id="XLNV6LYxOOSoH3dIW850-16" value="PING&lt;br&gt;" style="rounded=0;whiteSpace=wrap;html=1;" vertex="1" parent="1">
          <mxGeometry x="590" y="380" width="120" height="50" as="geometry" />
        </mxCell>
        <mxCell id="XLNV6LYxOOSoH3dIW850-21" style="edgeStyle=orthogonalEdgeStyle;rounded=0;orthogonalLoop=1;jettySize=auto;html=1;entryX=0;entryY=0.25;entryDx=0;entryDy=0;" edge="1" parent="1" source="XLNV6LYxOOSoH3dIW850-19" target="XLNV6LYxOOSoH3dIW850-16">
          <mxGeometry relative="1" as="geometry">
            <Array as="points">
              <mxPoint x="570" y="500" />
              <mxPoint x="570" y="393" />
            </Array>
          </mxGeometry>
        </mxCell>
        <mxCell id="XLNV6LYxOOSoH3dIW850-22" style="edgeStyle=orthogonalEdgeStyle;rounded=0;orthogonalLoop=1;jettySize=auto;html=1;exitX=1;exitY=0.5;exitDx=0;exitDy=0;" edge="1" parent="1" target="XLNV6LYxOOSoH3dIW850-23">
          <mxGeometry relative="1" as="geometry">
            <mxPoint x="640" y="588" as="targetPoint" />
            <mxPoint x="690" y="498" as="sourcePoint" />
            <Array as="points">
              <mxPoint x="700" y="498" />
              <mxPoint x="700" y="588" />
            </Array>
          </mxGeometry>
        </mxCell>
        <mxCell id="XLNV6LYxOOSoH3dIW850-19" value="succesed" style="rhombus;whiteSpace=wrap;html=1;rounded=0;" vertex="1" parent="1">
          <mxGeometry x="610" y="460" width="80" height="80" as="geometry" />
        </mxCell>
        <mxCell id="XLNV6LYxOOSoH3dIW850-24" style="edgeStyle=orthogonalEdgeStyle;rounded=0;orthogonalLoop=1;jettySize=auto;html=1;exitX=0;exitY=0.5;exitDx=0;exitDy=0;entryX=0;entryY=0.25;entryDx=0;entryDy=0;" edge="1" parent="1" source="XLNV6LYxOOSoH3dIW850-23" target="XLNV6LYxOOSoH3dIW850-16">
          <mxGeometry relative="1" as="geometry">
            <Array as="points">
              <mxPoint x="570" y="579" />
              <mxPoint x="570" y="393" />
            </Array>
          </mxGeometry>
        </mxCell>
        <mxCell id="XLNV6LYxOOSoH3dIW850-23" value="senf &#39;P&#39;" style="rounded=0;whiteSpace=wrap;html=1;" vertex="1" parent="1">
          <mxGeometry x="580" y="558" width="80" height="42" as="geometry" />
        </mxCell>
        <mxCell id="XLNV6LYxOOSoH3dIW850-37" style="edgeStyle=orthogonalEdgeStyle;rounded=0;orthogonalLoop=1;jettySize=auto;html=1;" edge="1" parent="1" source="XLNV6LYxOOSoH3dIW850-28">
          <mxGeometry relative="1" as="geometry">
            <mxPoint x="143.5" y="380" as="targetPoint" />
          </mxGeometry>
        </mxCell>
        <mxCell id="XLNV6LYxOOSoH3dIW850-28" value="&#39;P&#39;" style="rhombus;whiteSpace=wrap;html=1;rounded=0;" vertex="1" parent="1">
          <mxGeometry x="110" y="330" width="67" height="60" as="geometry" />
        </mxCell>
        <mxCell id="XLNV6LYxOOSoH3dIW850-30" value="" style="edgeStyle=orthogonalEdgeStyle;rounded=0;orthogonalLoop=1;jettySize=auto;html=1;exitX=0.5;exitY=1;exitDx=0;exitDy=0;" edge="1" parent="1" target="XLNV6LYxOOSoH3dIW850-31">
          <mxGeometry relative="1" as="geometry">
            <mxPoint x="213" y="280" as="sourcePoint" />
            <mxPoint x="242.5" y="332" as="targetPoint" />
            <Array as="points">
              <mxPoint x="213" y="310" />
              <mxPoint x="260" y="310" />
            </Array>
          </mxGeometry>
        </mxCell>
        <mxCell id="XLNV6LYxOOSoH3dIW850-35" value="" style="edgeStyle=orthogonalEdgeStyle;rounded=0;orthogonalLoop=1;jettySize=auto;html=1;exitX=0.5;exitY=1;exitDx=0;exitDy=0;" edge="1" parent="1" source="XLNV6LYxOOSoH3dIW850-31">
          <mxGeometry relative="1" as="geometry">
            <mxPoint x="254.5" y="390" as="sourcePoint" />
            <mxPoint x="264.29999999999995" y="420" as="targetPoint" />
          </mxGeometry>
        </mxCell>
        <mxCell id="XLNV6LYxOOSoH3dIW850-31" value="&#39;C&#39;" style="rhombus;whiteSpace=wrap;html=1;rounded=0;" vertex="1" parent="1">
          <mxGeometry x="230" y="330" width="67" height="60" as="geometry" />
        </mxCell>
        <mxCell id="XLNV6LYxOOSoH3dIW850-32" value="" style="endArrow=classic;startArrow=classic;html=1;rounded=0;" edge="1" parent="1">
          <mxGeometry width="50" height="50" relative="1" as="geometry">
            <mxPoint x="716" y="404.5" as="sourcePoint" />
            <mxPoint x="756" y="404.5" as="targetPoint" />
            <Array as="points">
              <mxPoint x="746" y="405" />
            </Array>
          </mxGeometry>
        </mxCell>
        <mxCell id="XLNV6LYxOOSoH3dIW850-33" value="Google&lt;br&gt;8.8.8.8" style="ellipse;shape=cloud;whiteSpace=wrap;html=1;" vertex="1" parent="1">
          <mxGeometry x="750" y="360" width="120" height="80" as="geometry" />
        </mxCell>
        <mxCell id="XLNV6LYxOOSoH3dIW850-34" value="reset time" style="whiteSpace=wrap;html=1;rounded=0;" vertex="1" parent="1">
          <mxGeometry x="220" y="420" width="106.5" height="40" as="geometry" />
        </mxCell>
        <mxCell id="XLNV6LYxOOSoH3dIW850-40" style="edgeStyle=orthogonalEdgeStyle;rounded=0;orthogonalLoop=1;jettySize=auto;html=1;" edge="1" parent="1" source="XLNV6LYxOOSoH3dIW850-39">
          <mxGeometry relative="1" as="geometry">
            <mxPoint x="200" y="290" as="targetPoint" />
          </mxGeometry>
        </mxCell>
        <mxCell id="XLNV6LYxOOSoH3dIW850-42" style="edgeStyle=orthogonalEdgeStyle;rounded=0;orthogonalLoop=1;jettySize=auto;html=1;exitX=0.5;exitY=1;exitDx=0;exitDy=0;entryX=0.5;entryY=0;entryDx=0;entryDy=0;" edge="1" parent="1" source="XLNV6LYxOOSoH3dIW850-39" target="XLNV6LYxOOSoH3dIW850-41">
          <mxGeometry relative="1" as="geometry" />
        </mxCell>
        <mxCell id="XLNV6LYxOOSoH3dIW850-39" value="time=-1" style="rhombus;whiteSpace=wrap;html=1;rounded=0;" vertex="1" parent="1">
          <mxGeometry x="110" y="410" width="67" height="60" as="geometry" />
        </mxCell>
        <mxCell id="XLNV6LYxOOSoH3dIW850-43" style="edgeStyle=orthogonalEdgeStyle;rounded=0;orthogonalLoop=1;jettySize=auto;html=1;exitX=0.5;exitY=1;exitDx=0;exitDy=0;" edge="1" parent="1" source="XLNV6LYxOOSoH3dIW850-41" target="XLNV6LYxOOSoH3dIW850-44">
          <mxGeometry relative="1" as="geometry">
            <mxPoint x="144" y="570" as="targetPoint" />
          </mxGeometry>
        </mxCell>
        <mxCell id="XLNV6LYxOOSoH3dIW850-45" style="edgeStyle=orthogonalEdgeStyle;rounded=0;orthogonalLoop=1;jettySize=auto;html=1;" edge="1" parent="1" source="XLNV6LYxOOSoH3dIW850-41">
          <mxGeometry relative="1" as="geometry">
            <mxPoint x="200" y="290" as="targetPoint" />
          </mxGeometry>
        </mxCell>
        <mxCell id="XLNV6LYxOOSoH3dIW850-41" value="timer end" style="rhombus;whiteSpace=wrap;html=1;rounded=0;" vertex="1" parent="1">
          <mxGeometry x="110" y="490" width="67" height="60" as="geometry" />
        </mxCell>
        <mxCell id="XLNV6LYxOOSoH3dIW850-54" style="edgeStyle=orthogonalEdgeStyle;rounded=0;orthogonalLoop=1;jettySize=auto;html=1;exitX=0.5;exitY=1;exitDx=0;exitDy=0;" edge="1" parent="1" source="XLNV6LYxOOSoH3dIW850-44" target="XLNV6LYxOOSoH3dIW850-55">
          <mxGeometry relative="1" as="geometry">
            <mxPoint x="144" y="660" as="targetPoint" />
          </mxGeometry>
        </mxCell>
        <mxCell id="XLNV6LYxOOSoH3dIW850-44" value="timeout" style="rounded=0;whiteSpace=wrap;html=1;" vertex="1" parent="1">
          <mxGeometry x="95.5" y="580" width="96" height="50" as="geometry" />
        </mxCell>
        <mxCell id="XLNV6LYxOOSoH3dIW850-47" value="yes" style="text;html=1;strokeColor=none;fillColor=none;align=center;verticalAlign=middle;whiteSpace=wrap;rounded=0;" vertex="1" parent="1">
          <mxGeometry x="90" y="550" width="60" height="30" as="geometry" />
        </mxCell>
        <mxCell id="XLNV6LYxOOSoH3dIW850-48" value="yes" style="text;html=1;strokeColor=none;fillColor=none;align=center;verticalAlign=middle;whiteSpace=wrap;rounded=0;" vertex="1" parent="1">
          <mxGeometry x="90" y="470" width="60" height="30" as="geometry" />
        </mxCell>
        <mxCell id="XLNV6LYxOOSoH3dIW850-49" value="yes" style="text;html=1;strokeColor=none;fillColor=none;align=center;verticalAlign=middle;whiteSpace=wrap;rounded=0;" vertex="1" parent="1">
          <mxGeometry x="700" y="520" width="60" height="30" as="geometry" />
        </mxCell>
        <mxCell id="XLNV6LYxOOSoH3dIW850-50" value="no" style="text;html=1;strokeColor=none;fillColor=none;align=center;verticalAlign=middle;whiteSpace=wrap;rounded=0;" vertex="1" parent="1">
          <mxGeometry x="154.5" y="485" width="60" height="30" as="geometry" />
        </mxCell>
        <mxCell id="XLNV6LYxOOSoH3dIW850-53" value="no" style="text;html=1;strokeColor=none;fillColor=none;align=center;verticalAlign=middle;whiteSpace=wrap;rounded=0;" vertex="1" parent="1">
          <mxGeometry x="155.5" y="404" width="60" height="30" as="geometry" />
        </mxCell>
        <mxCell id="XLNV6LYxOOSoH3dIW850-55" value="CLOSE()" style="text;html=1;strokeColor=none;fillColor=none;align=center;verticalAlign=middle;whiteSpace=wrap;rounded=0;" vertex="1" parent="1">
          <mxGeometry x="113.5" y="670" width="60" height="30" as="geometry" />
        </mxCell>
      </root>
    </mxGraphModel>
  </diagram>
</mxfile>
